<?xml version="1.0" encoding="utf-8"?>
<!-- Generator: Adobe Illustrator 18.0.0, SVG Export Plug-In . SVG Version: 6.00 Build 0)  -->
<!DOCTYPE svg PUBLIC "-//W3C//DTD SVG 1.1//EN" "http://www.w3.org/Graphics/SVG/1.1/DTD/svg11.dtd">
<svg version="1.1" id="Artwork" xmlns="http://www.w3.org/2000/svg" xmlns:xlink="http://www.w3.org/1999/xlink" x="0px" y="0px"
	 viewBox="0 0 792 612" enable-background="new 0 0 792 612" xml:space="preserve">
<g>
	<g>
		<g>
			<path fill="#FFFFFF" d="M555.5,406.6c-3.9-9.1-13.1-15.1-21.9-18.8l-59.8-27.6L445,335.9l-46.2,46l0,0l20,133.3
				c0.1,0.4,0,0.9-0.3,1.3l-20.8,28.6c-0.3,0.4-0.8,0.7-1.4,0.7c-0.7,0-1.1-0.2-1.4-0.7L374,516.5c-0.2-0.3-0.3-0.8-0.3-1.3
				l20-133.3l0,0l-46.2-46l-28.8,24.3l-60.2,27.7c-8.8,3.7-17.5,9.1-21.9,18.8c0,0-65.1,155-29.7,155h378.6
				C620.5,561.7,555.5,406.6,555.5,406.6z"/>
			<path fill="#FFFFFF" d="M559.6,194.2c0.9-0.1,1.8-0.4,2.2-1.2c0.6-0.7,0.8-1.7,0.7-2.4c-0.7-5.8-1.3-11.4-2-17.1l-1.4-12
				c-0.2-1.8-1.8-3-3.7-2.9h-2.6v-40.2l1.4-0.4l4.5-1.7c3.9-1.4,6.3-5,6.3-9c0-4.1-2.6-7.7-6.3-9L399.1,40.2c-2.1-0.8-4.5-0.8-6.6,0
				L232.8,97.9c-3.9,1.4-6.3,5-6.3,9c0,4.1,2.6,7.7,6.3,9l59,21.4c-4.1,13.1-6.1,28.2-5.9,45C287,278,342.4,335,393.9,335
				c50.8,0,107-57,108-152.7c0.1-16.3-1.7-30.9-5.6-43.8l42.9-15.5l0.1,35.3h-2.6c-1.8-0.1-3.5,1.2-3.7,2.9l-3.5,29.2
				c-0.1,0.9,0.1,1.8,0.7,2.4c0.6,0.7,1.4,1.2,2.2,1.2 M394,312c-44.8,0-75.8-52.5-82-105.1c-5.8-48.5,64.5-50.8,68.6-20.7
				c1.3,9.2-9.4,19.1-8.1,23c6,18.8,104.4-61.6,103.6-2.2C475.6,248.7,436.7,312,394,312z"/>
		</g>
	</g>
</g>
</svg>
