<?xml version="1.0" encoding="utf-8"?>
<!-- Generator: Adobe Illustrator 18.0.0, SVG Export Plug-In . SVG Version: 6.00 Build 0)  -->
<!DOCTYPE svg PUBLIC "-//W3C//DTD SVG 1.1//EN" "http://www.w3.org/Graphics/SVG/1.1/DTD/svg11.dtd">
<svg version="1.1" id="Artwork" xmlns="http://www.w3.org/2000/svg" xmlns:xlink="http://www.w3.org/1999/xlink" x="0px" y="0px"
	 viewBox="0 0 512 512" enable-background="new 0 0 512 512" xml:space="preserve">
<g>
	<path fill="#FFFFFF" d="M268.6,355.8c0-1.6-1.3-2.8-2.8-2.8h-60.5c-1.6,0-2.8,1.3-2.8,2.8v9.5c0,1.6-1.3,2.8-2.8,2.8h-43.2
		c-1.6,0-2.8,1.3-2.8,2.8v12.2c0,1.6,1.3,2.8,2.8,2.8h158.2c1.6,0,2.8-1.3,2.8-2.8V371c0-1.6-1.3-2.8-2.8-2.8h-43.2
		c-1.6,0-2.8-1.3-2.8-2.8L268.6,355.8L268.6,355.8z"/>
	<path fill="#FFFFFF" d="M416.1,41.7H55c-12.6,0-22.8,10.2-22.8,22.8v250.9c0,12.6,10.2,22.8,22.8,22.8h361.1
		c12.6,0,22.8-10.2,22.8-22.8V64.5C438.9,51.9,428.7,41.7,416.1,41.7z M235.6,318.5c-5.7,0-10.3-4.6-10.3-10.3s4.6-10.3,10.3-10.3
		c5.7,0,10.3,4.6,10.3,10.3S241.2,318.5,235.6,318.5z M421.6,286.9H49.5V64.5c0-3,2.5-5.5,5.5-5.5h361.1c3,0,5.5,2.5,5.5,5.5
		L421.6,286.9L421.6,286.9z"/>
	<path fill="#FFFFFF" d="M375.4,111.1c-3.5-2.7-8.5-2-11.2,1.5l-58.9,77.1l-70-37.2c-6.3-3.4-14.5-1.4-18.6,4.6l-46.4,67.7
		c-0.4,0.5-1.7,1.2-2.3,1.2h-67.5c-4.4,0-8,3.6-8,8s3.6,8,8,8h67.5c5.7,0,12.2-3.4,15.5-8.2l45.5-66.5l69.7,37.1
		c6.2,3.3,14.3,1.5,18.6-4.1l59.6-78C379.6,118.8,378.9,113.8,375.4,111.1z"/>
</g>
</svg>
