<?xml version="1.0" encoding="utf-8"?>
<!-- Generator: Adobe Illustrator 18.0.0, SVG Export Plug-In . SVG Version: 6.00 Build 0)  -->
<!DOCTYPE svg PUBLIC "-//W3C//DTD SVG 1.1//EN" "http://www.w3.org/Graphics/SVG/1.1/DTD/svg11.dtd">
<svg version="1.1" id="Artwork" xmlns="http://www.w3.org/2000/svg" xmlns:xlink="http://www.w3.org/1999/xlink" x="0px" y="0px"
	 viewBox="0 0 512 512" enable-background="new 0 0 512 512" xml:space="preserve">
<g>
	<path fill="#FFFFFF" d="M280.4,391c0-1.6-1.3-2.8-2.8-2.8h-60.5c-1.6,0-2.8,1.3-2.8,2.8v9.5c0,1.6-1.3,2.8-2.8,2.8h-43.2
		c-1.6,0-2.8,1.3-2.8,2.8v12.2c0,1.6,1.3,2.8,2.8,2.8h158.2c1.6,0,2.8-1.3,2.8-2.8v-12.2c0-1.6-1.3-2.8-2.8-2.8h-43.2
		c-1.6,0-2.8-1.3-2.8-2.8L280.4,391L280.4,391z"/>
	<path fill="#FFFFFF" d="M427.8,76.5H66.8C54.2,76.5,44,86.7,44,99.3v250.9c0,12.6,10.2,22.8,22.8,22.8h361.1
		c12.6,0,22.8-10.2,22.8-22.8V99.3C450.6,86.7,440.4,76.5,427.8,76.5z M66.8,93.8h361.1c3,0,5.5,2.5,5.5,5.5v222.4H61.2V99.3
		C61.2,96.3,63.7,93.8,66.8,93.8z M237,343.1c0-5.7,4.6-10.3,10.3-10.3c5.7,0,10.3,4.6,10.3,10.3s-4.6,10.3-10.3,10.3
		C241.6,353.3,237,348.7,237,343.1z"/>
	<g>
		<g>
			<path fill="#FFFFFF" d="M190.5,294.7c-1.2,0-2.4-0.2-3.6-0.7c-3.5-1.4-6-4.7-6.6-8.8l-2.5-17.2h-17.6c-7.3,0-13.2-5.9-13.2-13.2
				v-80.7c0-7.3,5.9-13.2,13.2-13.2h19.5c4.1,0,7.5,3.4,7.5,7.5s-3.4,7.5-7.5,7.5h-17.7v77h16.6c6.8,0,12.9,5.3,13.9,12l1.5,10.6
				l21.3-17.3c3.7-3.1,10-5.3,14.8-5.3h11.3c4.1,0,7.5,3.4,7.5,7.5s-3.4,7.5-7.5,7.5h-11.3c-1.4,0-4.2,1-5.3,1.9L197.8,292
				C195.6,293.8,193,294.7,190.5,294.7z"/>
		</g>
		<g>
			<path fill="#FFFFFF" d="M304,264.4c-2.5,0-5-0.9-7.2-2.7l-27.1-22.1c-1.1-0.9-3.9-1.9-5.3-1.9h-51.3c-7.3,0-13.2-5.9-13.2-13.2
				v-80.7c0-7.3,5.9-13.2,13.2-13.2h121.2c7.3,0,13.2,5.9,13.2,13.2v80.7c0,7.3-5.9,13.2-13.2,13.2h-17.6l-2.5,17.2
				C313.3,260.5,309.2,264.4,304,264.4z M214.9,222.7h49.4c4.8,0,11.1,2.2,14.8,5.3l21.3,17.3l1.5-10.6c1-6.7,7.1-12,13.9-12h16.6
				v-77H214.9V222.7z"/>
		</g>
	</g>
</g>
</svg>
