<?xml version="1.0" encoding="utf-8"?>
<!-- Generator: Adobe Illustrator 18.0.0, SVG Export Plug-In . SVG Version: 6.00 Build 0)  -->
<!DOCTYPE svg PUBLIC "-//W3C//DTD SVG 1.1//EN" "http://www.w3.org/Graphics/SVG/1.1/DTD/svg11.dtd">
<svg version="1.1" id="Artwork" xmlns="http://www.w3.org/2000/svg" xmlns:xlink="http://www.w3.org/1999/xlink" x="0px" y="0px"
	 viewBox="0 0 512 512" enable-background="new 0 0 512 512" xml:space="preserve">
<g>
	<path fill="#FFFFFF" d="M196.6,282.9c-1.9-2-1.9-5.3,0-7.3l33.5-35.5c1.9-2,2.1-5.5,0.5-7.7l-3.4-4.7c-1.6-2.2-4.5-2.5-6.4-0.5
		l-46.5,48.5c-1.9,2-1.9,5.3,0,7.2l46.5,48.5c1.9,2,4.8,1.8,6.4-0.5l3.4-4.8c1.6-2.2,1.4-5.7-0.5-7.7L196.6,282.9z"/>
	<path fill="#FFFFFF" d="M297.5,222.6h-6.2c-2.8,0-5.8,2.1-6.7,4.7l-36.1,103.9c-0.9,2.6,0.6,4.7,3.4,4.7h6.2c2.8,0,5.8-2.1,6.7-4.7
		l36.1-103.9C301.8,224.7,300.3,222.6,297.5,222.6z"/>
	<path fill="#FFFFFF" d="M328.5,227.1c-1.9-2-4.8-1.8-6.4,0.5l-3.4,4.7c-1.6,2.2-1.4,5.7,0.5,7.7l33.5,35.5c1.9,2,1.9,5.3,0,7.3
		l-33.5,35.5c-1.9,2-2.1,5.5-0.5,7.7l3.4,4.8c1.6,2.2,4.5,2.5,6.4,0.5l46.5-48.5c1.9-2,1.9-5.3,0-7.2L328.5,227.1z"/>
	<path fill="#FFFFFF" d="M447.4,88.3H102c-12.8,0-23.3,10.4-23.3,23.3v281.7c0,12.8,10.4,23.3,23.3,23.3h345.4
		c12.8,0,23.3-10.4,23.3-23.3V111.6C470.7,98.7,460.2,88.3,447.4,88.3z M239.9,117.6c0-2.9,2.4-5.3,5.3-5.3H277
		c2.9,0,5.3,2.4,5.3,5.3v10c0,2.9-2.4,5.3-5.3,5.3h-31.9c-2.9,0-5.3-2.4-5.3-5.3V117.6z M174.4,117.6c0-2.9,2.4-5.3,5.3-5.3h31.9
		c2.9,0,5.3,2.4,5.3,5.3v10c0,2.9-2.4,5.3-5.3,5.3h-31.9c-2.9,0-5.3-2.4-5.3-5.3V117.6z M110.6,117.6c0-2.9,2.4-5.3,5.3-5.3h31.9
		c2.9,0,5.3,2.4,5.3,5.3v10c0,2.9-2.4,5.3-5.3,5.3H116c-2.9,0-5.3-2.4-5.3-5.3C110.6,127.6,110.6,117.6,110.6,117.6z M452.1,390.2
		c0,3.1-2.5,5.6-5.6,5.6H103c-3.1,0-5.6-2.5-5.6-5.6V158.1c0-3.1,2.5-5.6,5.6-5.6h343.5c3.1,0,5.6,2.5,5.6,5.6L452.1,390.2
		L452.1,390.2z"/>
</g>
</svg>
