<?xml version="1.0" encoding="utf-8"?>
<!-- Generator: Adobe Illustrator 18.0.0, SVG Export Plug-In . SVG Version: 6.00 Build 0)  -->
<!DOCTYPE svg PUBLIC "-//W3C//DTD SVG 1.1//EN" "http://www.w3.org/Graphics/SVG/1.1/DTD/svg11.dtd">
<svg version="1.1" id="Artwork" xmlns="http://www.w3.org/2000/svg" xmlns:xlink="http://www.w3.org/1999/xlink" x="0px" y="0px"
	 viewBox="0 0 512 512" enable-background="new 0 0 512 512" xml:space="preserve">
<path fill="#FFFFFF" d="M253.2,159c0-3.1-2.6-5.7-5.7-5.7H128.7c-3.1,0-5.7,2.6-5.7,5.7v67.2c0,3.1,2.6,5.7,5.7,5.7h118.8
	c3.1,0,5.7-2.6,5.7-5.7L253.2,159L253.2,159z"/>
<path fill="#FFFFFF" d="M126,350.1c0,2.3,1.9,4.3,4.3,4.3h242.1c2.3,0,4.3-1.9,4.3-4.3v-8.7c0-2.3-1.9-4.3-4.3-4.3H130.3
	c-2.3,0-4.3,1.9-4.3,4.3V350.1z"/>
<path fill="#FFFFFF" d="M126,288.8c0,2.3,1.9,4.3,4.3,4.3h242.1c2.3,0,4.3-1.9,4.3-4.3v-8.7c0-2.3-1.9-4.3-4.3-4.3H130.3
	c-2.3,0-4.3,1.9-4.3,4.3V288.8z"/>
<path fill="#FFFFFF" d="M290.6,166.3c0,2.3,1.9,4.3,4.3,4.3h77.3c2.3,0,4.3-1.9,4.3-4.3v-8.7c0-2.3-1.9-4.3-4.3-4.3h-77.3
	c-2.3,0-4.3,1.9-4.3,4.3V166.3z"/>
<path fill="#FFFFFF" d="M290.6,227.6c0,2.3,1.9,4.3,4.3,4.3h77.3c2.3,0,4.3-1.9,4.3-4.3v-8.7c0-2.3-1.9-4.3-4.3-4.3h-77.3
	c-2.3,0-4.3,1.9-4.3,4.3V227.6z"/>
<path fill="#FFFFFF" d="M479.6,157.9c-3.8-4.7-9.7-7.4-16.2-7.4h-13.4c0,0-5-0.1-5,4c0,2.3,0,6.9,0,9.2c0,4.1,5,4,5,4h13.4
	c1.2,0,2.2,0.4,2.8,1s0.7,1.7,0.4,2.9c0,0-28.8,109.2-38.6,146c-0.1,0.4-0.9,0.2-0.9-0.3c0-51.9,0-205.8,0-205.8
	c0-12.8-10.4-23.3-23.3-23.3H96.7c-12.8,0-23.3,10.4-23.3,23.3v281.7c0,12.8,10.4,23.3,23.3,23.3h307.2c7.7,0,14.6-3.8,18.9-9.6
	c2.7-2,4.7-5.6,5.8-10.9l55-220.8C484.9,168.9,483.4,162.6,479.6,157.9z M409.9,393.3c0,3.3-2.7,6-6,6H96.7c-3.3,0-6-2.7-6-6V111.6
	c0-3.3,2.8-6,6-6h307.2c3.3,0,6,2.8,6,6V393.3z"/>
</svg>
