<?xml version="1.0" encoding="utf-8"?>
<!-- Generator: Adobe Illustrator 18.0.0, SVG Export Plug-In . SVG Version: 6.00 Build 0)  -->
<!DOCTYPE svg PUBLIC "-//W3C//DTD SVG 1.1//EN" "http://www.w3.org/Graphics/SVG/1.1/DTD/svg11.dtd">
<svg version="1.1" id="Artwork" xmlns="http://www.w3.org/2000/svg" xmlns:xlink="http://www.w3.org/1999/xlink" x="0px" y="0px"
	 viewBox="0 0 512 512" enable-background="new 0 0 512 512" xml:space="preserve">
<path fill="#FFFFFF" d="M307.6,290.6c-4.9,0-9.2,3.1-11.4,7.6v-0.7c0-9.5-6.7-17.2-15-17.2c-5.7,0-10.7,3.7-13.2,9
	c-2.5-5.4-7.5-9-13.2-9c-4.6,0-8.7,2.3-11.4,6v-53.3c0-9.5-6.7-17.2-15-17.2c-8.3,0-15.1,7.7-15.1,17.2v105l-7-14.6
	c-2.7-5.7-7.9-8.9-13.2-8.9c-2.4,0-4.9,0.7-7.2,2.1c-7.3,4.6-10,15-6,23.3l34.7,72.3c0,0.1,3.7,5.9,5.6,8.7
	c5.1,7.7,11.8,13.6,20.7,13.6H293c15.4,0,27.8-14.8,27.8-32.9v-96C320.8,297.4,314.9,290.6,307.6,290.6z"/>
<path fill="#FFFFFF" d="M411.2,88.3H66.7c-13,0-23.6,10.6-23.6,23.6l0,229.6c0,13,10.6,23.6,23.6,23.6h102.2c0,0,6.4,0,5-4.6
	c-1-3.3-5.7-11.9-5.9-12.3c-1.9-3.7-6.9-3.3-6.9-3.3H86c-3.1,0-5.7-2.5-5.7-5.6V114.2c0-3.1,2.6-5.6,5.7-5.6h296.3
	c3.1,0,5.7,2.5,5.7,5.6v225.1c0,3.1-2.6,5.6-5.7,5.6h-39.4c0,0-8-0.8-8,6c0,2.1,0,6.2,0,8.3c0,6,8.4,6,8.4,6h67.8
	c13,0,23.6-10.6,23.6-23.6V111.9C434.8,98.9,424.2,88.3,411.2,88.3z M406.5,238c-6.4,0-11.5-5.1-11.5-11.5c0-6.4,5.1-11.5,11.5-11.5
	s11.5,5.1,11.5,11.5C418,232.9,412.9,238,406.5,238z"/>
</svg>
