<?xml version="1.0" encoding="utf-8"?>
<!-- Generator: Adobe Illustrator 18.0.0, SVG Export Plug-In . SVG Version: 6.00 Build 0)  -->
<!DOCTYPE svg PUBLIC "-//W3C//DTD SVG 1.1//EN" "http://www.w3.org/Graphics/SVG/1.1/DTD/svg11.dtd">
<svg version="1.1" id="Artwork" xmlns="http://www.w3.org/2000/svg" xmlns:xlink="http://www.w3.org/1999/xlink" x="0px" y="0px"
	 viewBox="0 0 512 512" enable-background="new 0 0 512 512" xml:space="preserve">
<path fill="#FFFFFF" d="M360.7,366.8h-43.2c-1.6,0-2.8-1.3-2.8-2.8v-10.5c0-1.6-1.3-2.8-2.8-2.8h-60.5c-1.6,0-2.8,1.3-2.8,2.8v10.5
	c0,1.6-1.3,2.8-2.8,2.8h-32.5c-1.6,0-2.8,1.3-2.8,2.8v12.2c0,1.6,1.3,2.8,2.8,2.8h147.5c1.6,0,2.8-1.3,2.8-2.8v-12.2
	C363.6,368,362.3,366.8,360.7,366.8z"/>
<g>
	<path fill="#FFFFFF" d="M433.4,82.2H125c-10.7,0-19.5,8.7-19.5,19.5c0,0,0,37.1,0,50.8c0,6.7-0.5,7.7,4,7.7c2.4,0,5,0,7.7,0
		c3.8,0,3-0.9,3-7.8c0-13.6,0-50.6,0-50.6c0-2.6,2.2-4.7,4.7-4.7h308.4c2.6,0,4.7,2.2,4.7,4.7v190H218.2c0,0-7.7,0-7.7,10
		c0,5.9,0,17.8,0,23.8c0,10,8,10,8,10h214.9c10.7,0,19.5-8.7,19.5-19.5V101.7C452.8,90.9,444.1,82.2,433.4,82.2z M279.2,318.7
		c-4.8,0-8.8-3.9-8.8-8.8s3.9-8.8,8.8-8.8c4.8,0,8.8,3.9,8.8,8.8S284,318.7,279.2,318.7z"/>
	<path fill="#FFFFFF" d="M180.4,177.5H68.9c-6.9,0-12.6,5.6-12.6,12.6v183.4c0,6.9,5.6,12.6,12.6,12.6h111.6
		c6.9,0,12.6-5.6,12.6-12.6V190C193,183.1,187.4,177.5,180.4,177.5z M110.9,190.3h27.5c1.3,0,2.4,1.1,2.4,2.4c0,1.3-1.1,2.4-2.4,2.4
		h-27.5c-1.3,0-2.4-1.1-2.4-2.4C108.5,191.4,109.6,190.3,110.9,190.3z M124.5,377.2c-3.6,0-6.5-2.9-6.5-6.5s2.9-6.5,6.5-6.5
		s6.5,2.9,6.5,6.5S128.1,377.2,124.5,377.2z M182.2,358.1c0,1.7-1.3,3-3,3H70.1c-1.6,0-3-1.4-3-3V205.7c0-1.7,1.3-3,3-3h109.1
		c1.6,0,3,1.4,3,3V358.1z"/>
</g>
</svg>
